<?xml version="1.0" standalone="no"?>
<!DOCTYPE svg PUBLIC "-//W3C//DTD SVG 20010904//EN"
 "http://www.w3.org/TR/2001/REC-SVG-20010904/DTD/svg10.dtd">
<svg version="1.0" xmlns="http://www.w3.org/2000/svg"
 width="42.000000pt" height="42.000000pt" viewBox="0 0 42.000000 42.000000"
 preserveAspectRatio="xMidYMid meet">

<g transform="translate(0.000000,42.000000) scale(0.100000,-0.100000)"
fill="#F4D03F" stroke="none">
<path d="M145 406 c-57 -26 -95 -85 -95 -150 0 -36 15 -56 42 -56 10 0 18 -4
18 -9 0 -5 22 -32 49 -61 l49 -52 46 45 45 46 -46 3 c-70 5 -69 28 1 28 43 0
56 -3 56 -15 0 -23 16 -18 40 13 18 21 21 36 17 74 -10 110 -123 178 -222 134z
m136 -34 c29 -16 67 -72 50 -72 -6 0 -11 -6 -11 -14 0 -11 -24 -14 -110 -14
-89 0 -110 2 -110 14 0 8 -5 14 -11 14 -13 0 16 48 40 67 42 33 101 35 152 5z"/>
<path d="M170 363 c-20 -8 -60 -44 -60 -55 0 -12 94 -10 108 4 8 8 15 8 26 -1
8 -7 27 -11 42 -9 l28 3 -25 28 c-24 28 -85 44 -119 30z"/>
<path d="M67 102 c-10 -11 -17 -36 -17 -60 l0 -42 75 0 75 0 0 28 c0 36 -56
92 -91 92 -14 0 -33 -8 -42 -18z"/>
<path d="M252 87 c-20 -21 -32 -43 -32 -60 0 -27 0 -27 75 -27 l75 0 0 43 c0
80 -61 103 -118 44z m68 -27 c0 -5 -9 -10 -19 -10 -11 0 -23 5 -26 10 -4 6 5
10 19 10 14 0 26 -4 26 -10z"/>
</g>
</svg>
