<?xml version="1.0" standalone="no"?>
<!DOCTYPE svg PUBLIC "-//W3C//DTD SVG 20010904//EN"
 "http://www.w3.org/TR/2001/REC-SVG-20010904/DTD/svg10.dtd">
<svg version="1.0" xmlns="http://www.w3.org/2000/svg"
 width="42.000000pt" height="42.000000pt" viewBox="0 0 42.000000 42.000000"
 preserveAspectRatio="xMidYMid meet">

<g transform="translate(0.000000,42.000000) scale(0.100000,-0.100000)"
fill="#F4D03F" stroke="none">
<path d="M319 345 c-12 -13 -21 -14 -43 -5 -41 15 -106 12 -151 -9 -37 -17
-125 -100 -125 -119 0 -12 45 -71 67 -87 14 -11 16 -16 6 -26 -17 -17 -17 -39
0 -39 20 0 290 276 283 289 -10 15 -19 14 -37 -4z m-80 -54 c20 -13 4 -31 -28
-31 -34 0 -48 -15 -53 -54 -4 -36 -24 -45 -33 -16 -19 59 64 133 114 101z"/>
<path d="M328 253 c-14 -16 -28 -40 -32 -56 -8 -35 -38 -65 -73 -73 -30 -7
-63 -31 -63 -46 0 -13 88 -9 126 7 19 8 47 24 61 35 27 21 73 79 73 91 0 10
-50 69 -59 69 -4 0 -19 -12 -33 -27z"/>
</g>
</svg>
