<?xml version="1.0" standalone="no"?>
<!DOCTYPE svg PUBLIC "-//W3C//DTD SVG 20010904//EN"
 "http://www.w3.org/TR/2001/REC-SVG-20010904/DTD/svg10.dtd">
<svg version="1.0" xmlns="http://www.w3.org/2000/svg"
 width="42.000000pt" height="42.000000pt" viewBox="0 0 42.000000 42.000000"
 preserveAspectRatio="xMidYMid meet">

<g transform="translate(0.000000,42.000000) scale(0.100000,-0.100000)"
fill="#F4D03F" stroke="none">
<path d="M194 407 c-9 -25 0 -62 16 -62 10 0 15 10 15 34 0 36 -21 54 -31 28z"/>
<path d="M60 347 c0 -16 32 -47 48 -47 18 0 14 25 -6 43 -22 20 -42 22 -42 4z"/>
<path d="M317 342 c-20 -22 -22 -42 -4 -42 16 0 47 32 47 48 0 18 -25 14 -43
-6z"/>
<path d="M184 313 c-12 -2 -34 -17 -49 -33 -63 -66 -16 -173 75 -173 92 0 139
110 74 173 -30 29 -63 40 -100 33z"/>
<path d="M5 220 c-11 -18 10 -32 41 -28 40 4 38 32 -3 36 -17 2 -34 -2 -38 -8z"/>
<path d="M345 220 c-11 -18 10 -32 41 -28 40 4 38 32 -3 36 -17 2 -34 -2 -38
-8z"/>
<path d="M77 102 c-20 -22 -22 -42 -4 -42 16 0 47 32 47 48 0 18 -25 14 -43
-6z"/>
<path d="M300 107 c0 -16 32 -47 48 -47 18 0 14 25 -6 43 -22 20 -42 22 -42 4z"/>
<path d="M194 67 c-9 -25 0 -62 16 -62 10 0 15 10 15 34 0 36 -21 54 -31 28z"/>
</g>
</svg>
